<?xml version="1.0" standalone="no"?>
<!DOCTYPE svg PUBLIC "-//W3C//DTD SVG 20010904//EN"
 "http://www.w3.org/TR/2001/REC-SVG-20010904/DTD/svg10.dtd">
<svg version="1.0" xmlns="http://www.w3.org/2000/svg"
 width="192.000000pt" height="192.000000pt" viewBox="0 0 192.000000 192.000000"
 preserveAspectRatio="xMidYMid meet">
<metadata>
Created by potrace 1.11, written by Peter Selinger 2001-2013
</metadata>
<g transform="translate(0.000000,192.000000) scale(0.100000,-0.100000)"
fill="#000000" stroke="none">
<path d="M865 1699 c-4 -12 -3 -24 2 -28 12 -8 14 -213 3 -226 -6 -7 0 -11 16
-13 17 -1 24 3 25 16 0 9 2 74 4 145 2 127 2 127 -21 127 -14 0 -25 -8 -29
-21z"/>
<path d="M670 1701 c0 -5 7 -14 15 -21 8 -7 15 -21 15 -31 0 -10 6 -22 13 -26
8 -4 31 -34 51 -67 20 -32 40 -55 43 -52 9 8 53 149 49 154 -2 2 -12 -22 -23
-54 l-19 -56 -51 81 c-38 58 -58 81 -73 81 -11 0 -20 -4 -20 -9z"/>
<path d="M1069 1659 c-19 -38 -20 -42 -4 -29 11 8 16 10 13 5 -4 -6 -3 -31 2
-55 17 -98 20 -161 7 -154 -8 5 -9 4 -2 -3 6 -6 24 -13 40 -17 17 -4 25 -3 19
1 -6 4 -14 44 -18 88 -11 137 -19 191 -28 201 -4 3 -17 -14 -29 -37z"/>
<path d="M520 1676 l-35 -13 37 -4 c30 -4 36 -2 35 13 -1 10 -1 18 -2 17 0 0
-16 -6 -35 -13z"/>
<path d="M1247 1668 c17 -19 -25 -168 -46 -168 -11 0 -12 -3 -4 -8 15 -9 -3
-92 -21 -93 -14 -1 24 -17 42 -18 7 -1 11 3 8 7 -7 12 15 82 26 82 5 0 7 4 3
9 -3 5 6 46 21 91 14 45 24 83 22 84 -2 1 -16 8 -32 15 -24 10 -27 10 -19 -1z"/>
<path d="M432 1652 c-18 -3 -22 -8 -17 -20 4 -9 18 -48 31 -86 22 -65 23 -70
6 -82 -16 -12 -15 -13 4 -8 18 5 23 -1 34 -41 9 -34 17 -45 28 -40 8 3 34 10
58 16 30 8 41 15 37 25 -5 13 -8 13 -22 1 -9 -8 -26 -18 -38 -21 -19 -6 -23
-2 -32 31 -15 52 -15 53 19 53 17 0 30 5 30 10 0 12 -12 13 -43 1 -23 -9 -26
-7 -36 32 -37 137 -35 132 -59 129z"/>
<path d="M1353 1622 c9 -10 15 -28 12 -40 -7 -37 -28 -92 -36 -92 -4 0 -9 -7
-13 -15 -9 -25 20 -17 53 14 20 18 31 39 31 56 0 34 -24 81 -47 89 -16 6 -16
6 0 -12z"/>
<path d="M310 1610 c-25 -11 -38 -19 -29 -19 18 -1 84 -145 74 -161 -4 -6 -1
-10 5 -10 11 0 31 -42 33 -71 1 -14 6 -15 30 -6 16 5 24 13 19 16 -6 4 -33 61
-60 127 -44 108 -47 122 -33 132 22 15 14 13 -39 -8z"/>
<path d="M1016 1554 c-15 -31 -25 -58 -23 -61 2 -2 16 22 31 53 15 31 25 58
23 60 -2 2 -15 -22 -31 -52z"/>
<path d="M1476 1576 c5 -16 -113 -242 -125 -239 -21 5 -11 -7 19 -22 21 -11
28 -12 25 -3 -3 7 4 24 15 38 l20 25 0 -46 c0 -32 6 -51 18 -62 22 -20 36 -22
25 -5 -4 7 -8 31 -10 53 -2 22 -5 48 -7 57 -3 11 6 25 22 37 48 33 149 80 158
73 5 -4 -2 3 -16 15 -14 13 -29 23 -35 23 -5 0 -4 -4 3 -9 10 -6 -7 -22 -60
-56 -40 -27 -79 -53 -87 -59 -17 -14 6 33 55 109 l34 54 -29 14 c-19 9 -28 11
-25 3z"/>
<path d="M192 1556 c-29 -16 -41 -29 -21 -21 11 4 18 0 22 -12 3 -10 30 -64
60 -120 30 -56 52 -105 49 -108 -9 -9 8 -6 30 6 12 6 16 14 11 18 -16 9 -123
233 -117 243 7 11 -6 9 -34 -6z"/>
<path d="M714 1534 c3 -9 6 -38 6 -65 0 -36 4 -49 14 -49 8 0 18 5 22 12 4 6
3 8 -4 4 -11 -6 -20 25 -24 82 -1 17 -6 32 -11 32 -5 0 -6 -7 -3 -16z"/>
<path d="M975 1530 c-3 -5 -1 -10 4 -10 6 0 11 5 11 10 0 6 -2 10 -4 10 -3 0
-8 -4 -11 -10z"/>
<path d="M106 1505 c-15 -13 -33 -26 -39 -28 -7 -2 21 -53 67 -120 47 -70 75
-120 71 -128 -4 -6 6 -1 24 12 33 24 38 30 19 26 -15 -3 -151 210 -142 224 3
6 17 9 30 6 21 -4 23 -2 12 12 -7 9 -13 17 -13 18 -1 1 -13 -9 -29 -22z"/>
<path d="M968 1456 c-17 -23 -17 -24 7 -28 16 -4 22 -1 17 6 -3 6 -5 19 -4 29
4 22 1 21 -20 -7z"/>
<path d="M24 1452 c-20 -17 -20 -18 -2 -37 16 -17 18 -17 12 -2 -3 9 -1 24 6
32 18 22 8 26 -16 7z"/>
<path d="M1280 1455 c9 -11 9 -22 1 -45 -10 -30 -6 -60 9 -60 8 0 22 42 24 70
2 17 -23 50 -37 50 -5 0 -4 -7 3 -15z"/>
<path d="M1677 1451 c10 -12 6 -23 -25 -60 -66 -82 -75 -90 -85 -84 -6 3 -7 1
-3 -5 8 -13 -42 -74 -55 -66 -26 16 4 -20 57 -69 29 -26 32 -27 45 -10 8 9 9
14 3 10 -6 -3 -25 3 -43 14 l-32 19 28 35 c33 42 40 43 55 10 9 -20 14 -22 25
-13 11 9 10 13 -8 22 -13 6 -24 16 -26 21 -2 6 23 39 55 73 l58 62 -30 27
c-17 16 -25 21 -19 14z"/>
<path d="M320 1410 c-9 -6 -10 -10 -3 -10 6 0 15 5 18 10 8 12 4 12 -15 0z"/>
<path d="M1750 1386 c0 -3 8 -19 19 -36 16 -27 20 -29 31 -15 7 8 8 15 3 15
-5 0 -19 9 -31 20 -12 12 -22 18 -22 16z"/>
<path d="M240 1369 c0 -5 5 -7 10 -4 6 3 10 8 10 11 0 2 -4 4 -10 4 -5 0 -10
-5 -10 -11z"/>
<path d="M748 1375 c-2 -2 -30 -6 -63 -10 -118 -12 -243 -55 -354 -120 -117
-70 -142 -130 -82 -201 38 -47 39 -63 5 -103 -24 -28 -37 -76 -27 -94 8 -14
63 65 63 92 0 23 3 21 21 -17 12 -23 34 -51 49 -62 26 -19 33 -33 45 -100 2
-14 16 -49 30 -78 27 -56 33 -111 13 -114 -18 -2 -49 -5 -75 -7 -17 -1 -23 -7
-23 -26 0 -13 8 -28 18 -32 20 -10 1269 -10 1279 0 9 10 -30 87 -42 84 -5 -2
-16 3 -24 11 -13 12 -16 12 -27 -2 -7 -10 -14 -12 -15 -7 -3 7 -13 6 -31 -3
-24 -13 -28 -12 -46 8 -11 11 -23 36 -27 54 l-7 32 38 -22 c33 -19 52 -22 156
-23 65 0 118 2 118 6 0 3 13 4 28 1 26 -3 31 1 51 43 23 50 21 66 -7 58 -29
-7 -79 41 -84 81 -3 31 -1 35 30 47 37 15 92 71 92 94 0 12 -18 14 -95 12
l-95 -2 -12 29 c-20 48 -116 144 -202 200 -123 81 -279 137 -451 162 -46 6
-242 14 -247 9z m-476 -266 c-8 -41 -8 -42 -15 -16 -4 15 -3 36 4 48 16 30 20
19 11 -32z m337 -216 c-13 -16 -30 -32 -36 -36 -20 -13 -16 -26 20 -59 33 -32
117 -74 164 -83 32 -6 185 -6 223 0 14 2 41 6 60 9 55 8 80 14 133 32 46 15
49 18 43 45 -3 16 -1 29 4 29 6 0 10 -8 10 -18 0 -22 88 -162 101 -162 5 0 9
-5 9 -12 0 -6 8 -20 17 -30 13 -14 14 -21 5 -30 -9 -9 -15 -7 -26 8 -14 19
-15 19 -22 0 -7 -18 -8 -18 -21 0 -7 10 -13 13 -13 6 0 -22 -29 0 -39 29 -8
23 -7 37 6 63 14 31 14 35 -2 59 -9 15 -20 25 -24 23 -3 -2 -23 -11 -43 -19
l-37 -16 14 -35 c20 -48 19 -79 -5 -101 -18 -16 -20 -16 -20 -2 0 14 -8 16
-47 12 -33 -3 -43 -2 -33 5 8 5 11 10 5 10 -5 0 -17 -5 -25 -10 -10 -6 -21 -4
-35 8 -11 9 -14 10 -7 2 15 -18 16 -38 0 -22 -8 8 -15 8 -23 2 -14 -11 -45 -3
-45 11 0 5 -7 9 -15 9 -8 0 -15 -9 -15 -21 0 -14 -4 -18 -12 -12 -7 4 -19 8
-27 10 -8 1 -17 5 -20 10 -12 16 -40 11 -34 -6 3 -12 1 -12 -11 3 -15 19 -16
18 -25 -5 -8 -19 -10 -20 -10 -5 -1 14 -4 16 -14 7 -8 -6 -17 -7 -21 -3 -4 4
-11 7 -14 7 -4 0 -19 9 -34 19 -19 12 -33 38 -49 84 -12 37 -32 78 -44 91 -22
22 -23 23 -33 5 -5 -11 -13 -37 -16 -60 -6 -31 -3 -44 9 -54 19 -16 49 -70 42
-76 -3 -3 -16 -2 -30 1 -18 5 -23 12 -20 25 3 10 0 21 -6 24 -14 9 -14 70 0
120 6 22 31 60 56 87 48 52 74 69 32 22z m608 -45 c-3 -7 -5 -2 -5 12 0 14 2
19 5 13 2 -7 2 -19 0 -25z m230 -60 c-3 -7 -5 -2 -5 12 0 14 2 19 5 13 2 -7 2
-19 0 -25z m-3 -63 c1 -19 -2 -35 -6 -35 -5 0 -8 19 -8 42 0 49 13 44 14 -7z"/>
<path d="M1796 1315 c-16 -12 -15 -14 10 -17 15 -2 29 -8 31 -14 5 -16 -188
-176 -204 -169 -7 2 -3 -9 9 -25 20 -28 37 -42 23 -20 -5 8 179 158 206 168 4
2 11 -8 15 -23 4 -18 10 -23 17 -16 6 6 -3 26 -29 58 -60 74 -58 72 -78 58z"/>
<path d="M1693 1028 c-39 -8 -41 -11 -31 -28 11 -18 41 -19 69 -4 9 5 19 44
11 43 -4 -1 -26 -5 -49 -11z"/>
<path d="M1465 600 c10 -11 20 -20 23 -20 3 0 -3 9 -13 20 -10 11 -20 20 -23
20 -3 0 3 -9 13 -20z"/>
<path d="M360 429 c0 -19 1 -19 16 -5 8 9 22 16 30 16 11 0 14 -25 14 -134 0
-120 -2 -135 -17 -139 -10 -2 0 -4 22 -3 l40 0 -3 138 c-3 117 -1 138 12 138
8 0 18 -4 21 -10 9 -15 22 -12 22 5 0 12 -16 15 -79 15 -72 0 -78 -2 -78 -21z"/>
<path d="M632 420 c-9 -24 -6 -41 13 -90 21 -54 22 -60 7 -61 -13 0 -12 -2 3
-9 25 -10 51 -80 33 -91 -6 -4 8 -6 31 -6 22 1 37 3 32 7 -14 8 -40 90 -29 90
5 0 3 7 -5 15 -9 8 -27 51 -42 95 -15 44 -28 80 -30 80 -2 0 -8 -13 -13 -30z"/>
<path d="M831 308 c28 -78 51 -144 53 -145 2 -2 10 16 18 41 8 25 11 44 5 43
-11 -2 -78 189 -69 197 3 3 -8 6 -25 6 l-31 0 49 -142z"/>
<path d="M938 443 c16 -6 15 -34 -7 -116 -20 -77 -11 -78 12 -2 8 28 22 67 31
87 l16 37 -33 -1 c-17 -1 -26 -3 -19 -5z"/>
<path d="M1030 441 c12 -8 15 -33 14 -133 0 -68 -3 -129 -7 -135 -4 -6 3 -10
18 -10 26 0 28 3 26 55 -1 38 18 50 52 35 19 -9 23 -8 23 6 0 15 -6 16 -37 11
l-37 -7 1 93 2 94 -35 0 c-25 -1 -31 -3 -20 -9z"/>
<path d="M1121 446 c2 -1 19 -8 37 -14 26 -9 32 -8 32 4 0 10 -11 14 -37 14
-20 0 -34 -2 -32 -4z"/>
<path d="M1226 438 c3 -5 6 -68 6 -141 l0 -132 36 -1 c21 -1 30 1 21 3 -13 3
-16 24 -16 138 0 115 2 135 16 139 9 2 -3 4 -26 3 -23 0 -39 -5 -37 -9z"/>
<path d="M1327 438 c12 -6 24 -20 27 -32 9 -34 7 -96 -4 -117 -14 -26 2 -24
27 4 45 48 37 100 -20 136 -19 11 -38 21 -43 20 -5 0 1 -5 13 -11z"/>
<path d="M1450 430 c19 -19 23 -32 22 -75 -1 -17 0 -17 4 -2 6 17 24 24 24 8
0 -4 27 -53 60 -107 46 -75 60 -93 61 -74 2 43 -1 49 -69 161 -59 96 -70 109
-94 109 l-28 0 20 -20z"/>
<path d="M1610 412 c4 -21 5 -48 3 -60 -1 -12 1 -22 5 -22 5 0 9 21 11 47 1
26 7 53 13 60 8 10 5 13 -14 13 -24 0 -25 -2 -18 -38z"/>
<path d="M596 330 c-22 -56 -19 -65 5 -11 11 24 18 46 15 48 -2 2 -11 -14 -20
-37z"/>
<path d="M1470 275 c-1 -22 -2 -43 -2 -46 1 -4 -2 -20 -7 -36 -8 -27 -6 -28
22 -30 20 0 25 2 16 8 -9 5 -16 35 -20 76 -4 52 -7 58 -9 28z"/>
<path d="M1613 270 c1 -21 10 -18 13 5 1 8 -2 15 -6 15 -5 0 -8 -9 -7 -20z"/>
<path d="M540 260 c0 -5 7 -7 15 -4 12 5 13 1 3 -27 -6 -19 -17 -41 -24 -49
-11 -13 -9 -15 18 -17 18 0 26 2 18 7 -17 11 -4 77 18 89 14 9 11 10 -15 11
-18 0 -33 -4 -33 -10z"/>
<path d="M1324 248 c9 -12 16 -33 16 -45 0 -30 44 -53 63 -34 9 10 9 12 -2 9
-8 -2 -17 9 -23 29 -4 18 -18 39 -30 48 -32 22 -42 19 -24 -7z"/>
<path d="M1175 190 c-3 -5 -15 -10 -25 -10 -10 0 -21 -4 -24 -8 -2 -4 11 -8
30 -8 26 0 34 4 34 18 0 20 -6 23 -15 8z"/>
</g>
</svg>
